jumper-scaled_states
version=1
nRows=4
nColumns=111
inDegrees=yes

# SIMM Motion File Header:
name jumper-scaled_states
datacolumns 111
datarows 4
otherdata 1
range 3.77507629 3.77735533
endheader
time	/jointset/ground_pelvis/pelvis_tilt/value	/jointset/ground_pelvis/pelvis_tilt/speed	/jointset/ground_pelvis/pelvis_list/value	/jointset/ground_pelvis/pelvis_list/speed	/jointset/ground_pelvis/pelvis_rotation/value	/jointset/ground_pelvis/pelvis_rotation/speed	/jointset/ground_pelvis/pelvis_tx/value	/jointset/ground_pelvis/pelvis_tx/speed	/jointset/ground_pelvis/pelvis_ty/value	/jointset/ground_pelvis/pelvis_ty/speed	/jointset/ground_pelvis/pelvis_tz/value	/jointset/ground_pelvis/pelvis_tz/speed	/jointset/hip_r/hip_flexion_r/value	/jointset/hip_r/hip_flexion_r/speed	/jointset/hip_r/hip_adduction_r/value	/jointset/hip_r/hip_adduction_r/speed	/jointset/hip_r/hip_rotation_r/value	/jointset/hip_r/hip_rotation_r/speed	/jointset/knee_r/knee_flexion_r/value	/jointset/knee_r/knee_flexion_r/speed	/jointset/ankle_r/ankle_flexion_r/value	/jointset/ankle_r/ankle_flexion_r/speed	/jointset/subtalar_r/subtalar_angle_r/value	/jointset/subtalar_r/subtalar_angle_r/speed	/jointset/mtp_r/mtp_angle_r/value	/jointset/mtp_r/mtp_angle_r/speed	/jointset/hip_l/hip_flexion_l/value	/jointset/hip_l/hip_flexion_l/speed	/jointset/hip_l/hip_adduction_l/value	/jointset/hip_l/hip_adduction_l/speed	/jointset/hip_l/hip_rotation_l/value	/jointset/hip_l/hip_rotation_l/speed	/jointset/knee_l/knee_flexion_l/value	/jointset/knee_l/knee_flexion_l/speed	/jointset/ankle_l/ankle_flexion_l/value	/jointset/ankle_l/ankle_flexion_l/speed	/jointset/subtalar_l/subtalar_angle_l/value	/jointset/subtalar_l/subtalar_angle_l/speed	/jointset/mtp_l/mtp_angle_l/value	/jointset/mtp_l/mtp_angle_l/speed	/jointset/back/lumbar_extension/value	/jointset/back/lumbar_extension/speed	/jointset/back/lumbar_bending/value	/jointset/back/lumbar_bending/speed	/jointset/back/lumbar_rotation/value	/jointset/back/lumbar_rotation/speed	/jointset/acromial_r/arm_flex_r/value	/jointset/acromial_r/arm_flex_r/speed	/jointset/acromial_r/arm_add_r/value	/jointset/acromial_r/arm_add_r/speed	/jointset/acromial_r/arm_rot_r/value	/jointset/acromial_r/arm_rot_r/speed	/jointset/elbow_r/elbow_flex_r/value	/jointset/elbow_r/elbow_flex_r/speed	/jointset/radioulnar_r/pro_sup_r/value	/jointset/radioulnar_r/pro_sup_r/speed	/jointset/radius_hand_r/wrist_flex_r/value	/jointset/radius_hand_r/wrist_flex_r/speed	/jointset/radius_hand_r/wrist_dev_r/value	/jointset/radius_hand_r/wrist_dev_r/speed	/jointset/acromial_l/arm_flex_l/value	/jointset/acromial_l/arm_flex_l/speed	/jointset/acromial_l/arm_add_l/value	/jointset/acromial_l/arm_add_l/speed	/jointset/acromial_l/arm_rot_l/value	/jointset/acromial_l/arm_rot_l/speed	/jointset/elbow_l/elbow_flex_l/value	/jointset/elbow_l/elbow_flex_l/speed	/jointset/radioulnar_l/pro_sup_l/value	/jointset/radioulnar_l/pro_sup_l/speed	/jointset/radius_hand_l/wrist_flex_l/value	/jointset/radius_hand_l/wrist_flex_l/speed	/jointset/radius_hand_l/wrist_dev_l/value	/jointset/radius_hand_l/wrist_dev_l/speed	/forceset/hamstrings_r/activation	/forceset/hamstrings_r/fiber_length	/forceset/bifemsh_r/activation	/forceset/bifemsh_r/fiber_length	/forceset/glut_max_r/activation	/forceset/glut_max_r/fiber_length	/forceset/iliopsoas_r/activation	/forceset/iliopsoas_r/fiber_length	/forceset/rect_fem_r/activation	/forceset/rect_fem_r/fiber_length	/forceset/vasti_r/activation	/forceset/vasti_r/fiber_length	/forceset/gastroc_r/activation	/forceset/gastroc_r/fiber_length	/forceset/soleus_r/activation	/forceset/soleus_r/fiber_length	/forceset/tib_ant_r/activation	/forceset/tib_ant_r/fiber_length	/forceset/hamstrings_l/activation	/forceset/hamstrings_l/fiber_length	/forceset/bifemsh_l/activation	/forceset/bifemsh_l/fiber_length	/forceset/glut_max_l/activation	/forceset/glut_max_l/fiber_length	/forceset/iliopsoas_l/activation	/forceset/iliopsoas_l/fiber_length	/forceset/rect_fem_l/activation	/forceset/rect_fem_l/fiber_length	/forceset/vasti_l/activation	/forceset/vasti_l/fiber_length	/forceset/gastroc_l/activation	/forceset/gastroc_l/fiber_length	/forceset/soleus_l/activation	/forceset/soleus_l/fiber_length	/forceset/tib_ant_l/activation	/forceset/tib_ant_l/fiber_length
      3.77507629	    -21.67588970	    -23.68649750	     -1.30166336	     -9.36212272	      2.93310743	     -9.12342212	      0.08127533	      0.52526708	      0.55021540	      0.85800330	     -0.00974875	      0.02630748	     82.72728975	   -128.99702485	    -12.02744935	     39.23987434	     -2.79221546	    -26.33884212	    103.20007049	   -161.41144503	     39.05580070	    -67.05716640	     -0.00000000	      0.00000000	      0.00000000	      0.00000000	     81.72412135	   -121.74821268	     -8.37640284	    -20.02655779	     -0.70857903	    -21.53182005	    101.85813230	   -153.03186404	     39.64294115	    -87.71276824	     -0.00000000	     -0.00000000	      0.00000000	      0.00000000	    -12.38290772	    122.98080520	      1.01621997	      3.46395569	      5.26038478	      2.32549171	      0.00000000	      0.00000000	      0.00000000	      0.00000000	      0.00000000	      0.00000000	      0.00000000	     -0.00000000	      0.00000000	      0.00000000	      0.00000000	      0.00000000	      0.00000000	      0.00000000	     -0.00000000	     -0.00000000	      0.00000000	     -0.00000000	     -0.00000000	     -0.00000000	     -0.00000000	     -0.00000000	     -0.00000000	     -0.00000000	     -0.00000000	     -0.00000000	     -0.00000000	     -0.00000000	      0.31533883	      0.12028472	      0.02822084	      0.12006172	      0.06845807	      0.17708606	      0.79659872	      0.04377954	      0.24688881	      0.08842522	      0.27989646	      0.12426631	      0.02000000	      0.07342522	      0.02000000	      0.05809239	      1.00000000	      0.04871684	      0.11816963	      0.12054987	      0.02775250	      0.11929156	      0.02000000	      0.17689186	      0.02000000	      0.04296598	      0.02072179	      0.09011453	      0.37215953	      0.12166540	      0.02000000	      0.06899940	      0.02000000	      0.05581415	      1.00000000	      0.04702156
      3.77583597	    -21.69366681	    -23.09725613	     -1.30896582	     -9.85121749	      2.92619088	     -9.08557044	      0.08167558	      0.52849776	      0.55086911	      0.86304868	     -0.00972862	      0.02667759	     82.62875682	   -130.43866516	    -11.99758636	     39.37350635	     -2.81254197	    -27.17886937	    103.07730446	   -161.80530337	     39.00588827	    -64.03510156	     -0.00000000	      0.00000000	      0.00000000	      0.00000000	     81.63129965	   -122.66445157	     -8.39178607	    -20.46859192	     -0.72492083	    -21.50993382	    101.74190234	   -152.98427286	     39.57727257	    -84.68168517	     -0.00000000	     -0.00000000	      0.00000000	      0.00000000	    -12.28947902	    122.96868495	      1.01904374	      3.95866481	      5.26216426	      2.35636944	      0.00000000	      0.00000000	      0.00000000	      0.00000000	      0.00000000	      0.00000000	      0.00000000	     -0.00000000	      0.00000000	      0.00000000	      0.00000000	      0.00000000	      0.00000000	      0.00000000	     -0.00000000	     -0.00000000	      0.00000000	     -0.00000000	     -0.00000000	     -0.00000000	     -0.00000000	     -0.00000000	     -0.00000000	     -0.00000000	     -0.00000000	     -0.00000000	     -0.00000000	     -0.00000000	      0.30995362	      0.12026102	      0.02813661	      0.12008495	      0.07245179	      0.17704061	      0.80547980	      0.04379225	      0.24584793	      0.08842532	      0.27877312	      0.12421965	      0.02000000	      0.07342611	      0.02000000	      0.05807646	      1.00000000	      0.04872857	      0.12020548	      0.12048565	      0.02767317	      0.11931426	      0.02000000	      0.17685223	      0.02000000	      0.04296494	      0.02071454	      0.09012223	      0.37079156	      0.12162167	      0.02000000	      0.06899525	      0.02000000	      0.05579298	      1.00000000	      0.04703441
      3.77659565	    -21.71095959	    -22.41696355	     -1.31661251	    -10.26762819	      2.91930206	     -9.05189581	      0.08207834	      0.53184705	      0.55152671	      0.86823116	     -0.00970822	      0.02701973	     82.52906952	   -132.02821380	    -11.96763460	     39.47659014	     -2.83351224	    -28.02674963	    102.95421415	   -162.26420100	     38.95899379	    -59.06976112	     -0.00000000	      0.00000000	      0.00000000	      0.00000000	     81.53769193	   -123.81143700	     -8.40749696	    -20.89096960	     -0.74128949	    -21.60488414	    101.62566595	   -153.05188193	     39.51499986	    -78.82749359	     -0.00000000	     -0.00000000	      0.00000000	      0.00000000	    -12.19609965	    122.85708385	      1.02221608	      4.38023087	      5.26396161	      2.37367029	      0.00000000	      0.00000000	      0.00000000	      0.00000000	      0.00000000	      0.00000000	      0.00000000	     -0.00000000	      0.00000000	      0.00000000	      0.00000000	      0.00000000	      0.00000000	      0.00000000	     -0.00000000	     -0.00000000	      0.00000000	     -0.00000000	     -0.00000000	     -0.00000000	     -0.00000000	     -0.00000000	     -0.00000000	     -0.00000000	     -0.00000000	     -0.00000000	     -0.00000000	     -0.00000000	      0.30470971	      0.12023882	      0.02805326	      0.12010836	      0.07594445	      0.17699669	      0.81391021	      0.04380524	      0.24482590	      0.08842660	      0.27767119	      0.12417296	      0.02000000	      0.07342688	      0.02000000	      0.05806057	      1.00000000	      0.04874042	      0.12201851	      0.12042142	      0.02759467	      0.11933705	      0.02000000	      0.17681218	      0.02000000	      0.04296390	      0.02070737	      0.09013015	      0.36945332	      0.12157784	      0.02000000	      0.06899066	      0.02000000	      0.05577161	      1.00000000	      0.04704750
      3.77735533	    -21.72771179	    -21.67990840	     -1.32454604	    -10.60507135	      2.91243504	     -9.02936631	      0.08248367	      0.53528697	      0.55218829	      0.87350059	     -0.00968757	      0.02734029	     82.42813402	   -133.71503480	    -11.93761189	     39.56103383	     -2.85511488	    -28.83798445	    102.83075285	   -162.77898118	     38.91668419	    -52.01470910	     -0.00000000	      0.00000000	      0.00000000	      0.00000000	     81.44313769	   -125.14789252	     -8.42352400	    -21.30137426	     -0.75778216	    -21.84100399	    101.50932845	   -153.24825556	     39.45808218	    -70.70885724	     -0.00000000	     -0.00000000	      0.00000000	      0.00000000	    -12.10283089	    122.68393285	      1.02567793	      4.71898291	      5.26576841	      2.38201363	      0.00000000	      0.00000000	      0.00000000	      0.00000000	      0.00000000	      0.00000000	      0.00000000	     -0.00000000	      0.00000000	      0.00000000	      0.00000000	      0.00000000	      0.00000000	      0.00000000	     -0.00000000	     -0.00000000	      0.00000000	     -0.00000000	     -0.00000000	     -0.00000000	     -0.00000000	     -0.00000000	     -0.00000000	     -0.00000000	     -0.00000000	     -0.00000000	     -0.00000000	     -0.00000000	      0.29960185	      0.12021803	      0.02797078	      0.12013195	      0.07900589	      0.17695400	      0.82191894	      0.04381862	      0.24382233	      0.08842903	      0.27659021	      0.12412621	      0.02000000	      0.07342775	      0.02000000	      0.05804523	      1.00000000	      0.04875228	      0.12363458	      0.12035738	      0.02751699	      0.11935995	      0.02000000	      0.17677165	      0.02000000	      0.04296287	      0.02070027	      0.09013832	      0.36814408	      0.12153389	      0.02000000	      0.06898589	      0.02000000	      0.05575071	      1.00000000	      0.04706071
